<svg width="27" height="27" viewBox="0 0 27 27" fill="none" xmlns="http://www.w3.org/2000/svg">
    <g clip-path="url(#clip0_161_78)">
        <path
            d="M4.28248 10.5H15.69V9.00001H4.28248L7.06498 6.20251C7.13442 6.13258 7.1894 6.04966 7.22679 5.95848C7.26418 5.86731 7.28325 5.76966 7.2829 5.67111C7.28255 5.57256 7.26279 5.47505 7.22476 5.38414C7.18673 5.29323 7.13116 5.2107 7.06123 5.14126C6.9913 5.07183 6.90838 5.01684 6.8172 4.97945C6.72603 4.94206 6.62838 4.923 6.52983 4.92334C6.43128 4.92369 6.33377 4.94345 6.24286 4.98148C6.15195 5.01951 6.06942 5.07508 5.99998 5.14501L1.41748 9.75001L5.99998 14.355C6.06667 14.434 6.14896 14.4983 6.24168 14.5439C6.33439 14.5896 6.43555 14.6156 6.53879 14.6203C6.64202 14.625 6.74512 14.6083 6.84161 14.5713C6.9381 14.5342 7.02589 14.4777 7.09948 14.4051C7.17307 14.3326 7.23088 14.2456 7.26927 14.1496C7.30765 14.0537 7.3258 13.9508 7.32256 13.8475C7.31932 13.7442 7.29477 13.6427 7.25044 13.5494C7.20612 13.456 7.14298 13.3728 7.06498 13.305L4.28248 10.5Z"
            fill="#F6F1FF" />
        <path d="M17.25 9H19.5V10.5H17.25V9Z" fill="#F6F1FF" />
        <path d="M21 9H22.5V10.5H21V9Z" fill="#F6F1FF" />
        <path
            d="M20.94 13.395C20.8706 13.3251 20.788 13.2695 20.6971 13.2315C20.6062 13.1934 20.5087 13.1737 20.4102 13.1733C20.3116 13.173 20.214 13.1921 20.1228 13.2295C20.0316 13.2668 19.9487 13.3218 19.8787 13.3913C19.8088 13.4607 19.7533 13.5432 19.7152 13.6341C19.6772 13.7251 19.6574 13.8226 19.6571 13.9211C19.6567 14.0197 19.6758 14.1173 19.7132 14.2085C19.7506 14.2997 19.8056 14.3826 19.875 14.4525L22.6575 17.25H11.25V18.75H22.6575L19.875 21.555C19.797 21.6228 19.7339 21.706 19.6895 21.7994C19.6452 21.8927 19.6207 21.9942 19.6174 22.0975C19.6142 22.2008 19.6323 22.3037 19.6707 22.3996C19.7091 22.4956 19.7669 22.5826 19.8405 22.6551C19.9141 22.7277 20.0019 22.7842 20.0984 22.8213C20.1949 22.8583 20.298 22.875 20.4012 22.8703C20.5044 22.8656 20.6056 22.8396 20.6983 22.7939C20.791 22.7483 20.8733 22.684 20.94 22.605L25.5 18L20.94 13.395Z"
            fill="#F6F1FF" />
        <path d="M7.5 17.25H9.75V18.75H7.5V17.25Z" fill="#F6F1FF" />
        <path d="M4.5 17.25H6V18.75H4.5V17.25Z" fill="#F6F1FF" />
    </g>
    <defs>
        <clipPath id="clip0_161_78">
            <rect width="27" height="27" fill="white" />
        </clipPath>
    </defs>
</svg>
    